<?xml version="1.0" encoding="UTF-8"?>
<svg version="1.1" xmlns="http://www.w3.org/2000/svg" width="787" height="430">
<path d="M0 0 C259.71 0 519.42 0 787 0 C787 141.9 787 283.8 787 430 C527.29 430 267.58 430 0 430 C0 288.1 0 146.2 0 0 Z " fill="#008000" transform="translate(0,0)"/>
<path d="M0 0 C259.71 0 519.42 0 787 0 C787 141.9 787 283.8 787 430 C527.29 430 267.58 430 0 430 C0 288.1 0 146.2 0 0 Z M81 49 C81 153.94 81 258.88 81 367 C96.51 362.71 112.02 358.42 128 354 C152.09712535 347.86205298 152.09712535 347.86205298 164 345 C165.04205597 344.74780197 165.04205597 344.74780197 166.10516357 344.49050903 C175.98660018 342.10282477 185.88424557 339.9532782 195.875 338.0625 C197.22731133 337.80550627 198.57960587 337.54842413 199.93188477 337.29125977 C201.99087713 336.90004345 204.04997581 336.50943888 206.10945129 336.12077332 C210.27768408 335.33312018 214.4390152 334.51636723 218.59765625 333.6796875 C232.2978441 330.96810417 246.0212429 328.97619912 259.875 327.25 C261.15925369 327.08949661 261.15925369 327.08949661 262.4694519 326.92575073 C278.57070676 324.92957381 294.45986851 323.76156345 310.6875 323.75 C311.54615662 323.74932526 312.40481323 323.74865051 313.28948975 323.74795532 C328.04782107 323.76626591 342.406858 324.69342995 357 327 C358.09763672 327.16628906 359.19527344 327.33257812 360.32617188 327.50390625 C378.97686729 330.36346773 397.31995877 334.40423282 415.70866394 338.57922363 C440.90085756 344.29165091 465.58053866 349.23531768 491.5 349.1875 C492.56628632 349.18559662 492.56628632 349.18559662 493.65411377 349.18365479 C504.89605255 349.14550805 515.88416499 348.76511794 527 347 C528.79630859 346.71745361 528.79630859 346.71745361 530.62890625 346.42919922 C557.59022488 342.12828457 584.00300672 336.20640864 610.04296875 327.93017578 C613.09481679 326.97017405 616.15500719 326.04238879 619.21875 325.12109375 C633.68675116 320.74707163 648.03799257 316.04807141 662.35595703 311.20773315 C664.3135693 310.54619208 666.27186342 309.88666396 668.23095703 309.22952271 C685.72418735 303.35205775 702.75923114 296.67384601 720 290 C720 210.47 720 130.94 720 49 C509.13 49 298.26 49 81 49 Z " fill="#F4F4F4" transform="translate(0,0)"/>
</svg>
